<?xml version="1.0" encoding="utf-8"?>
<!-- Generator: Adobe Illustrator 23.0.0, SVG Export Plug-In . SVG Version: 6.00 Build 0)  -->
<svg version="1.1" id="Capa_1" xmlns="http://www.w3.org/2000/svg" xmlns:xlink="http://www.w3.org/1999/xlink" x="0px" y="0px"
	 viewBox="0 0 24 24" style="enable-background:new 0 0 24 24;" xml:space="preserve">
<style type="text/css">
	.st0{fill:none;stroke:#006BB1;stroke-linecap:round;stroke-linejoin:round;stroke-miterlimit:10;}
</style>
<g>
	<path class="st0" d="M17.5,12.5h1c1.7,0,3,1.3,3,3s-1.3,3-3,3h-1"/>
	<path class="st0" d="M17.5,21.5c0,1.1-0.9,2-2,2h-9c-1.1,0-2-0.9-2-2v-11h13V21.5z M17.4,0.6c1,1.6-0.5,2.4-0.9,3.3
		c-0.4,0.9,0,1.8,0.9,2.1C20.3,7.2,21.2,1.5,17.4,0.6z M14.5,10.5l2.6-4.7 M18.1,6.2l-1.6,4.3"/>
	<path class="st0" d="M8.5,10.5h-3L4,7.5l-0.5-3L6,6L8.5,10.5z M4,7.5L6,6"/>
	<path class="st0" d="M9.5,0.5h4v10h-4V0.5z M13.5,2.5h-2 M13.5,4.5h-1 M13.5,6.5h-2 M13.5,8.5h-1"/>
</g>
</svg>
