<?xml version="1.0" encoding="utf-8"?>
<!-- Generator: Adobe Illustrator 23.0.0, SVG Export Plug-In . SVG Version: 6.00 Build 0)  -->
<svg version="1.1" id="Capa_1" xmlns="http://www.w3.org/2000/svg" xmlns:xlink="http://www.w3.org/1999/xlink" x="0px" y="0px"
	 viewBox="0 0 24 24" style="enable-background:new 0 0 24 24;" xml:space="preserve">
<style type="text/css">
	.st0{fill:none;stroke:#006BB1;stroke-linecap:round;stroke-linejoin:round;stroke-miterlimit:10;}
</style>
<g>
	<path class="st0" d="M12.5,13.5c-0.8,0-2,0.7-2,1.5v7.5c0,0.6,1.1,1,1.7,1h1c0.6,0,1.3-0.5,1.3-1V15C14.5,14.1,13.3,13.5,12.5,13.5
		z M4.5,3.5h-1c-0.5,0-1,0.5-1,1v4c0,0.6,0.5,1,1,1h8c0.5,0,1,0.5,1,1v2.9"/>
	<path class="st0" d="M4.5,0.5h15v6h-15V0.5z M19.5,3.5h1"/>
</g>
</svg>
