<?xml version="1.0" encoding="utf-8"?>
<!-- Generator: Adobe Illustrator 19.0.0, SVG Export Plug-In . SVG Version: 6.00 Build 0)  -->
<svg version="1.1" id="Capa_1" xmlns="http://www.w3.org/2000/svg" xmlns:xlink="http://www.w3.org/1999/xlink" x="0px" y="0px"
	 viewBox="-311 209 24 24" style="enable-background:new -311 209 24 24;" xml:space="preserve">
<style type="text/css">
	.st0{fill:none;stroke:#E8630F;stroke-linecap:round;stroke-linejoin:round;stroke-miterlimit:10;}
</style>
<g>
	<path class="st0" d="M-298.5,222.5c-0.8,0-2,0.7-2,1.5v7.5c0,0.6,1.1,1,1.7,1h1c0.6,0,1.3-0.5,1.3-1V224
		C-296.5,223.1-297.7,222.5-298.5,222.5z M-306.5,212.5h-1c-0.5,0-1,0.5-1,1v4c0,0.6,0.5,1,1,1h8c0.5,0,1,0.5,1,1v2.9"/>
	<path class="st0" d="M-306.5,209.5h15v6h-15V209.5z M-291.5,212.5h1"/>
</g>
</svg>
